<svg xmlns="http://www.w3.org/2000/svg" viewBox="0 0 900 600" width="900" height="600" role="img" aria-label="Number line"><title>Number line</title><desc>TheMITbro M17 number_line SVG</desc><rect x="0" y="0" width="100%" height="100%" fill="white"/><text x="20.000" y="25.000" font-size="18" font-weight="600" fill="#111">Number line</text><line x1="55.000" y1="300.000" x2="845.000" y2="300.000" stroke="#333" stroke-width="2"/><line x1="55.000" y1="292.000" x2="55.000" y2="308.000" stroke="#333" stroke-width="1.4"/><text x="55.000" y="328.000" text-anchor="middle" font-size="12" fill="#222">-3</text><line x1="153.750" y1="292.000" x2="153.750" y2="308.000" stroke="#333" stroke-width="1.4"/><text x="153.750" y="328.000" text-anchor="middle" font-size="12" fill="#222">-2</text><line x1="252.500" y1="292.000" x2="252.500" y2="308.000" stroke="#333" stroke-width="1.4"/><text x="252.500" y="328.000" text-anchor="middle" font-size="12" fill="#222">-1</text><line x1="351.250" y1="292.000" x2="351.250" y2="308.000" stroke="#333" stroke-width="1.4"/><text x="351.250" y="328.000" text-anchor="middle" font-size="12" fill="#222">0</text><line x1="450.000" y1="292.000" x2="450.000" y2="308.000" stroke="#333" stroke-width="1.4"/><text x="450.000" y="328.000" text-anchor="middle" font-size="12" fill="#222">1</text><line x1="548.750" y1="292.000" x2="548.750" y2="308.000" stroke="#333" stroke-width="1.4"/><text x="548.750" y="328.000" text-anchor="middle" font-size="12" fill="#222">2</text><line x1="647.500" y1="292.000" x2="647.500" y2="308.000" stroke="#333" stroke-width="1.4"/><text x="647.500" y="328.000" text-anchor="middle" font-size="12" fill="#222">3</text><line x1="746.250" y1="292.000" x2="746.250" y2="308.000" stroke="#333" stroke-width="1.4"/><text x="746.250" y="328.000" text-anchor="middle" font-size="12" fill="#222">4</text><line x1="845.000" y1="292.000" x2="845.000" y2="308.000" stroke="#333" stroke-width="1.4"/><text x="845.000" y="328.000" text-anchor="middle" font-size="12" fill="#222">5</text><circle cx="153.750" cy="300.000" r="6.000" fill="#1f5eff"/><text x="153.750" y="286.000" text-anchor="middle" font-size="13" fill="#111">-2</text><circle cx="351.250" cy="300.000" r="6.000" fill="#1f5eff"/><text x="351.250" y="286.000" text-anchor="middle" font-size="13" fill="#111">0</text><circle cx="746.250" cy="300.000" r="6.000" fill="#1f5eff"/><text x="746.250" y="286.000" text-anchor="middle" font-size="13" fill="#111">4</text></svg>