<svg xmlns="http://www.w3.org/2000/svg" viewBox="0 0 1000 650" width="1000" height="650" role="img" aria-label="Signal/block diagram"><title>Signal/block diagram</title><desc>TheMITbro M18 block_diagram SVG</desc><rect x="0" y="0" width="100%" height="100%" fill="white"/><text x="20.000" y="28.000" font-size="18" font-weight="600" fill="#111">Block diagram</text><line x1="120.000" y1="300.000" x2="300.000" y2="300.000" stroke="#444" stroke-width="1.8"/><polygon points="300.000,300.000 293.245,304.287 293.245,295.713" fill="#444"/><line x1="300.000" y1="300.000" x2="480.000" y2="300.000" stroke="#444" stroke-width="1.8"/><polygon points="480.000,300.000 473.245,304.287 473.245,295.713" fill="#444"/><line x1="480.000" y1="300.000" x2="660.000" y2="300.000" stroke="#444" stroke-width="1.8"/><polygon points="660.000,300.000 653.245,304.287 653.245,295.713" fill="#444"/><rect x="60.000" y="272.500" width="120.000" height="55.000" fill="white" stroke="#333" stroke-width="2"/><text x="120.000" y="305.000" text-anchor="middle" font-size="14" fill="#111">Input</text><rect x="240.000" y="272.500" width="120.000" height="55.000" fill="white" stroke="#333" stroke-width="2"/><text x="300.000" y="305.000" text-anchor="middle" font-size="14" fill="#111">controller</text><rect x="420.000" y="272.500" width="120.000" height="55.000" fill="white" stroke="#333" stroke-width="2"/><text x="480.000" y="305.000" text-anchor="middle" font-size="14" fill="#111">plant</text><rect x="600.000" y="272.500" width="120.000" height="55.000" fill="white" stroke="#333" stroke-width="2"/><text x="660.000" y="305.000" text-anchor="middle" font-size="14" fill="#111">Output</text></svg>